<?xml version="1.0" standalone="no"?>
<!DOCTYPE svg PUBLIC "-//W3C//DTD SVG 20010904//EN"
 "http://www.w3.org/TR/2001/REC-SVG-20010904/DTD/svg10.dtd">
<svg version="1.0" xmlns="http://www.w3.org/2000/svg"
 width="256.000000pt" height="256.000000pt" viewBox="0 0 256.000000 256.000000"
 preserveAspectRatio="xMidYMid meet">
<metadata>
Created by potrace 1.11, written by Peter Selinger 2001-2013
</metadata>
<g transform="translate(0.000000,256.000000) scale(0.100000,-0.100000)"
fill="#000000" stroke="none">
<path d="M218 2542 c-95 -34 -181 -125 -207 -217 -8 -28 -10 -336 -8 -1065 l2
-1025 23 -46 c30 -61 99 -131 159 -160 l48 -24 1045 0 1045 0 47 23 c62 31
129 97 159 158 l24 49 0 1045 0 1045 -25 50 c-30 60 -99 129 -160 158 l-45 22
-1030 2 c-944 2 -1034 0 -1077 -15z m2110 -145 c17 -10 44 -36 60 -59 l27 -42
3 -995 c2 -673 0 -1008 -8 -1032 -14 -51 -47 -88 -94 -110 -39 -18 -89 -19
-1034 -19 -1070 0 -1026 -2 -1085 52 -60 56 -57 7 -57 1085 1 765 4 996 13
1023 18 49 45 79 92 101 38 18 84 18 1045 16 942 -2 1007 -3 1038 -20z"/>
<path d="M1129 1901 c-88 -24 -172 -64 -236 -112 -54 -41 -163 -164 -163 -184
0 -6 15 -18 33 -27 33 -16 34 -16 51 12 30 52 132 145 194 178 88 47 146 63
242 67 102 4 164 -6 248 -41 34 -15 64 -25 65 -23 37 53 38 58 13 75 -14 8
-58 27 -98 41 -96 34 -250 40 -349 14z"/>
<path d="M1740 962 c-144 -214 -445 -299 -684 -194 -27 12 -52 22 -55 22 -4 0
-15 -15 -24 -34 l-16 -35 72 -29 c95 -40 163 -52 272 -47 99 4 108 6 180 30
89 30 178 86 247 156 58 59 106 125 96 134 -2 1 -17 9 -33 18 -31 15 -31 15
-55 -21z"/>
</g>
</svg>
